<svg version="1.1" id="Ebene_1" xmlns="http://www.w3.org/2000/svg" x="0" y="0" viewBox="0 0 512 512" xml:space="preserve"><style>.st1{fill:#de2525}</style><path d="M176 416v64M80 32h192c17.7 0 32 14.3 32 32v412c0 2.2-1.8 4-4 4H48V64c0-17.7 14.3-32 32-32zm240 160h112c17.7 0 32 14.3 32 32v256H304V208c0-8.8 7.2-16 16-16z" fill="none" stroke="#de2525" stroke-width="32" stroke-linecap="round" stroke-linejoin="round"/><path class="st1" d="M98.1 431.9c-8.8 1.1-16.8-5-17.9-13.8-1.1-8.8 5-16.8 13.8-17.9 8.8-1.1 16.8 5 17.9 13.8.2 1.4.2 2.8 0 4.1-1 7.2-6.6 12.8-13.8 13.8zm0-80c-8.8 1.1-16.8-5-17.9-13.8-1.1-8.8 5-16.8 13.8-17.9 8.8-1.1 16.8 5 17.9 13.8.2 1.4.2 2.8 0 4.1-1 7.2-6.6 12.8-13.8 13.8zm0-80c-8.8 1.1-16.8-5-17.9-13.8-1.1-8.8 5-16.8 13.8-17.9s16.8 5 17.9 13.8c.2 1.4.2 2.8 0 4.1-1 7.2-6.6 12.8-13.8 13.8zm0-80c-8.8 1.1-16.8-5-17.9-13.8-1.1-8.8 5-16.8 13.8-17.9 8.8-1.1 16.8 5 17.9 13.8.2 1.4.2 2.8 0 4.1-1 7.2-6.6 12.8-13.8 13.8zm0-80c-8.8 1.1-16.8-5-17.9-13.8-1.1-8.8 5-16.8 13.8-17.9 8.8-1.1 16.8 5 17.9 13.8.2 1.4.2 2.8 0 4.1-1 7.2-6.6 12.8-13.8 13.8zm80 240c-8.8 1.1-16.8-5-17.9-13.8-1.1-8.8 5-16.8 13.8-17.9 8.8-1.1 16.8 5 17.9 13.8.2 1.4.2 2.8 0 4.1-1 7.2-6.6 12.8-13.8 13.8zm0-80c-8.8 1.1-16.8-5-17.9-13.8-1.1-8.8 5-16.8 13.8-17.9 8.8-1.1 16.8 5 17.9 13.8.2 1.4.2 2.8 0 4.1-1 7.2-6.6 12.8-13.8 13.8zm0-80c-8.8 1.1-16.8-5-17.9-13.8s5-16.8 13.8-17.9 16.8 5 17.9 13.8c.2 1.4.2 2.8 0 4.1-1 7.2-6.6 12.8-13.8 13.8zm0-80c-8.8 1.1-16.8-5-17.9-13.8s5-16.8 13.8-17.9c8.8-1.1 16.8 5 17.9 13.8.2 1.4.2 2.8 0 4.1-1 7.2-6.6 12.8-13.8 13.8zm80 320c-8.8 1.1-16.8-5-17.9-13.8-1.1-8.8 5-16.8 13.8-17.9 8.8-1.1 16.8 5 17.9 13.8.2 1.4.2 2.8 0 4.1-1 7.2-6.6 12.8-13.8 13.8zm0-80c-8.8 1.1-16.8-5-17.9-13.8-1.1-8.8 5-16.8 13.8-17.9 8.8-1.1 16.8 5 17.9 13.8.2 1.4.2 2.8 0 4.1-1 7.2-6.6 12.8-13.8 13.8zm0-80c-8.8 1.1-16.8-5-17.9-13.8-1.1-8.8 5-16.8 13.8-17.9 8.8-1.1 16.8 5 17.9 13.8.2 1.4.2 2.8 0 4.1-1 7.2-6.6 12.8-13.8 13.8z"/><circle transform="rotate(-45.001 256.009 175.997)" class="st1" cx="256" cy="176" r="16"/><path class="st1" d="M258.1 111.9c-8.8 1.1-16.8-5-17.9-13.8-1.1-8.8 5-16.8 13.8-17.9s16.8 5 17.9 13.8c.2 1.4.2 2.8 0 4.1-1 7.2-6.6 12.8-13.8 13.8zM400 400c-8.8 0-16 7.2-16 16s7.2 16 16 16 16-7.2 16-16-7.2-16-16-16zm0-80c-8.8 0-16 7.2-16 16s7.2 16 16 16 16-7.2 16-16-7.2-16-16-16zm0-80c-8.8 0-16 7.2-16 16s7.2 16 16 16 16-7.2 16-16-7.2-16-16-16zm-64 160c-8.8 0-16 7.2-16 16s7.2 16 16 16 16-7.2 16-16-7.2-16-16-16zm0-80c-8.8 0-16 7.2-16 16s7.2 16 16 16 16-7.2 16-16-7.2-16-16-16zm0-80c-8.8 0-16 7.2-16 16s7.2 16 16 16 16-7.2 16-16-7.2-16-16-16z"/></svg>