<?xml version="1.0" encoding="utf-8"?>
<!-- Generator: Adobe Illustrator 24.1.1, SVG Export Plug-In . SVG Version: 6.00 Build 0)  -->
<svg version="1.1" id="Ebene_1" xmlns="http://www.w3.org/2000/svg" xmlns:xlink="http://www.w3.org/1999/xlink" x="0px" y="0px"
	 viewBox="0 0 512 512" style="enable-background:new 0 0 512 512;" xml:space="preserve">
<style type="text/css">
	.st0{fill:none;stroke:#DE2525;stroke-width:32;stroke-linecap:round;stroke-linejoin:round;}
	.st1{fill:#DE2525;}
</style>
<line class="st0" x1="176" y1="416" x2="176" y2="480"/>
<path class="st0" d="M80,32h192c17.7,0,32,14.3,32,32v412c0,2.2-1.8,4-4,4H48l0,0V64C48,46.3,62.3,32,80,32z"/>
<path class="st0" d="M320,192h112c17.7,0,32,14.3,32,32v256l0,0H304l0,0V208C304,199.2,311.2,192,320,192z"/>
<path class="st1" d="M98.1,431.9c-8.8,1.1-16.8-5-17.9-13.8c-1.1-8.8,5-16.8,13.8-17.9c8.8-1.1,16.8,5,17.9,13.8
	c0.2,1.4,0.2,2.8,0,4.1C110.9,425.3,105.3,430.9,98.1,431.9z"/>
<path class="st1" d="M98.1,351.9c-8.8,1.1-16.8-5-17.9-13.8c-1.1-8.8,5-16.8,13.8-17.9c8.8-1.1,16.8,5,17.9,13.8
	c0.2,1.4,0.2,2.8,0,4.1C110.9,345.3,105.3,350.9,98.1,351.9z"/>
<path class="st1" d="M98.1,271.9c-8.8,1.1-16.8-5-17.9-13.8c-1.1-8.8,5-16.8,13.8-17.9s16.8,5,17.9,13.8c0.2,1.4,0.2,2.8,0,4.1
	C110.9,265.3,105.3,270.9,98.1,271.9z"/>
<path class="st1" d="M98.1,191.9c-8.8,1.1-16.8-5-17.9-13.8c-1.1-8.8,5-16.8,13.8-17.9c8.8-1.1,16.8,5,17.9,13.8
	c0.2,1.4,0.2,2.8,0,4.1C110.9,185.3,105.3,190.9,98.1,191.9z"/>
<path class="st1" d="M98.1,111.9c-8.8,1.1-16.8-5-17.9-13.8c-1.1-8.8,5-16.8,13.8-17.9c8.8-1.1,16.8,5,17.9,13.8
	c0.2,1.4,0.2,2.8,0,4.1C110.9,105.3,105.3,110.9,98.1,111.9z"/>
<path class="st1" d="M178.1,351.9c-8.8,1.1-16.8-5-17.9-13.8c-1.1-8.8,5-16.8,13.8-17.9c8.8-1.1,16.8,5,17.9,13.8
	c0.2,1.4,0.2,2.8,0,4.1C190.9,345.3,185.3,350.9,178.1,351.9z"/>
<path class="st1" d="M178.1,271.9c-8.8,1.1-16.8-5-17.9-13.8c-1.1-8.8,5-16.8,13.8-17.9c8.8-1.1,16.8,5,17.9,13.8
	c0.2,1.4,0.2,2.8,0,4.1C190.9,265.3,185.3,270.9,178.1,271.9z"/>
<path class="st1" d="M178.1,191.9c-8.8,1.1-16.8-5-17.9-13.8s5-16.8,13.8-17.9s16.8,5,17.9,13.8c0.2,1.4,0.2,2.8,0,4.1
	C190.9,185.3,185.3,190.9,178.1,191.9z"/>
<path class="st1" d="M178.1,111.9c-8.8,1.1-16.8-5-17.9-13.8s5-16.8,13.8-17.9c8.8-1.1,16.8,5,17.9,13.8c0.2,1.4,0.2,2.8,0,4.1
	C190.9,105.3,185.3,110.9,178.1,111.9z"/>
<path class="st1" d="M258.1,431.9c-8.8,1.1-16.8-5-17.9-13.8c-1.1-8.8,5-16.8,13.8-17.9c8.8-1.1,16.8,5,17.9,13.8
	c0.2,1.4,0.2,2.8,0,4.1C270.9,425.3,265.3,430.9,258.1,431.9z"/>
<path class="st1" d="M258.1,351.9c-8.8,1.1-16.8-5-17.9-13.8c-1.1-8.8,5-16.8,13.8-17.9c8.8-1.1,16.8,5,17.9,13.8
	c0.2,1.4,0.2,2.8,0,4.1C270.9,345.3,265.3,350.9,258.1,351.9z"/>
<path class="st1" d="M258.1,271.9c-8.8,1.1-16.8-5-17.9-13.8c-1.1-8.8,5-16.8,13.8-17.9c8.8-1.1,16.8,5,17.9,13.8
	c0.2,1.4,0.2,2.8,0,4.1C270.9,265.3,265.3,270.9,258.1,271.9z"/>
<ellipse transform="matrix(0.7071 -0.7071 0.7071 0.7071 -49.4627 232.5734)" class="st1" cx="256" cy="176" rx="16" ry="16"/>
<path class="st1" d="M258.1,111.9c-8.8,1.1-16.8-5-17.9-13.8c-1.1-8.8,5-16.8,13.8-17.9s16.8,5,17.9,13.8c0.2,1.4,0.2,2.8,0,4.1
	C270.9,105.3,265.3,110.9,258.1,111.9z"/>
<path class="st1" d="M400,400c-8.8,0-16,7.2-16,16s7.2,16,16,16s16-7.2,16-16S408.8,400,400,400z"/>
<path class="st1" d="M400,320c-8.8,0-16,7.2-16,16s7.2,16,16,16s16-7.2,16-16S408.8,320,400,320z"/>
<path class="st1" d="M400,240c-8.8,0-16,7.2-16,16c0,8.8,7.2,16,16,16s16-7.2,16-16C416,247.2,408.8,240,400,240z"/>
<path class="st1" d="M336,400c-8.8,0-16,7.2-16,16s7.2,16,16,16s16-7.2,16-16S344.8,400,336,400z"/>
<path class="st1" d="M336,320c-8.8,0-16,7.2-16,16s7.2,16,16,16s16-7.2,16-16S344.8,320,336,320z"/>
<path class="st1" d="M336,240c-8.8,0-16,7.2-16,16c0,8.8,7.2,16,16,16s16-7.2,16-16C352,247.2,344.8,240,336,240z"/>
</svg>
