<?xml version="1.0" encoding="utf-8"?>
<!-- Generator: Adobe Illustrator 24.1.1, SVG Export Plug-In . SVG Version: 6.00 Build 0)  -->
<svg version="1.1" id="Ebene_1" xmlns="http://www.w3.org/2000/svg" xmlns:xlink="http://www.w3.org/1999/xlink" x="0px" y="0px"
	 viewBox="0 0 512 512" style="enable-background:new 0 0 512 512;" xml:space="preserve">
<style type="text/css">
	.st0{fill:none;stroke:#DE2525;stroke-width:32;stroke-linecap:round;stroke-linejoin:round;}
	.st1{fill:#DE2525;}
</style>
<path class="st0" d="M435.3,48H312.4c-3.8,0-7.5,1.5-10.2,4.2L56.5,297.9c-11.2,11.3-11.2,29.4,0,40.7l117,117
	c11.3,11.2,29.4,11.2,40.7,0L459.8,210c2.7-2.7,4.2-6.4,4.2-10.2v-123C464,61,451.3,48.1,435.4,48C435.4,48,435.3,48,435.3,48z"/>
<path class="st1" d="M384,160c-17.7,0-32-14.3-32-32s14.3-32,32-32s32,14.3,32,32S401.7,160,384,160z"/>
</svg>
