<?xml version="1.0" encoding="utf-8"?>
<!-- Generator: Adobe Illustrator 24.1.1, SVG Export Plug-In . SVG Version: 6.00 Build 0)  -->
<svg version="1.1" id="Ebene_1" xmlns="http://www.w3.org/2000/svg" xmlns:xlink="http://www.w3.org/1999/xlink" x="0px" y="0px"
	 viewBox="0 0 512 512" style="enable-background:new 0 0 512 512;" xml:space="preserve">
<style type="text/css">
	.st0{fill:none;stroke:#DE2525;stroke-width:32;stroke-linecap:round;stroke-linejoin:round;}
</style>
<line class="st0" x1="256" y1="32" x2="256" y2="480"/>
<path class="st0" d="M313.7,80c-17.4,10.5-37.4,16-57.7,16s-40.3-5.5-57.7-16"/>
<path class="st0" d="M198.3,432c35.5-21.3,79.9-21.3,115.4,0"/>
<line class="st0" x1="450" y1="144" x2="62" y2="368"/>
<path class="st0" d="M437.3,218c-36.2-20.1-58.4-58.6-57.7-100"/>
<path class="st0" d="M74.7,294c36.2,20.1,58.4,58.6,57.7,100"/>
<line class="st0" x1="62" y1="144" x2="450" y2="368"/>
<path class="st0" d="M74.7,218c36.2-20.1,58.4-58.6,57.7-100"/>
<path class="st0" d="M437.3,294c-36.2,20.1-58.4,58.6-57.7,100"/>
</svg>
